<mxfile host="65bd71144e">
    <diagram id="SAotNYOugcCDjUQFNJJ4" name="Page-1">
        <mxGraphModel dx="700" dy="1590" grid="1" gridSize="10" guides="1" tooltips="1" connect="1" arrows="1" fold="1" page="1" pageScale="1" pageWidth="850" pageHeight="1100" math="0" shadow="0">
            <root>
                <mxCell id="0"/>
                <mxCell id="1" parent="0"/>
                <mxCell id="10" value="" style="whiteSpace=wrap;html=1;fillColor=#f5f5f5;fontColor=#333333;strokeColor=#666666;" vertex="1" parent="1">
                    <mxGeometry x="20" y="-40" width="1000" height="790" as="geometry"/>
                </mxCell>
                <mxCell id="73" value="" style="whiteSpace=wrap;html=1;aspect=fixed;fillColor=#dae8fc;strokeColor=#6c8ebf;" vertex="1" parent="1">
                    <mxGeometry x="170" y="-10" width="630" height="630" as="geometry"/>
                </mxCell>
                <mxCell id="52" style="edgeStyle=none;html=1;strokeColor=#050505;fontColor=#050505;endArrow=none;endFill=0;" edge="1" parent="1" source="2" target="12">
                    <mxGeometry relative="1" as="geometry"/>
                </mxCell>
                <mxCell id="53" style="edgeStyle=none;html=1;strokeColor=#050505;fontColor=#050505;endArrow=none;endFill=0;entryX=0;entryY=0;entryDx=0;entryDy=0;" edge="1" parent="1" source="2" target="38">
                    <mxGeometry relative="1" as="geometry">
                        <mxPoint x="206.66115648177242" y="145.68915816894582" as="targetPoint"/>
                    </mxGeometry>
                </mxCell>
                <mxCell id="2" value="&lt;font color=&quot;#050505&quot;&gt;Członek zespołu&lt;/font&gt;" style="shape=umlActor;verticalLabelPosition=bottom;verticalAlign=top;html=1;outlineConnect=0;fillColor=#f8cecc;strokeColor=#b85450;" vertex="1" parent="1">
                    <mxGeometry x="70" y="80" width="30" height="60" as="geometry"/>
                </mxCell>
                <mxCell id="12" value="Prezentowanie projektu" style="ellipse;whiteSpace=wrap;html=1;" vertex="1" parent="1">
                    <mxGeometry x="210" y="50" width="110" height="70" as="geometry"/>
                </mxCell>
                <mxCell id="17" value="Delegowanie zadań" style="ellipse;whiteSpace=wrap;html=1;" vertex="1" parent="1">
                    <mxGeometry x="205" y="350" width="100" height="50" as="geometry"/>
                </mxCell>
                <mxCell id="18" value="Wyznaczanie daty i miejsca prezentacji" style="ellipse;whiteSpace=wrap;html=1;" vertex="1" parent="1">
                    <mxGeometry x="200" y="420" width="120" height="70" as="geometry"/>
                </mxCell>
                <mxCell id="19" value="Koordynowanie zadań" style="ellipse;whiteSpace=wrap;html=1;" vertex="1" parent="1">
                    <mxGeometry x="205" y="500" width="100" height="50" as="geometry"/>
                </mxCell>
                <mxCell id="20" value="Uczestniczenie w prezentacji" style="ellipse;whiteSpace=wrap;html=1;" vertex="1" parent="1">
                    <mxGeometry x="610" y="20" width="110" height="60" as="geometry"/>
                </mxCell>
                <mxCell id="21" value="Wystawianie ocen za prezentacje" style="ellipse;whiteSpace=wrap;html=1;" vertex="1" parent="1">
                    <mxGeometry x="520" y="100" width="110" height="60" as="geometry"/>
                </mxCell>
                <mxCell id="22" value="Tworzenie notatek" style="ellipse;whiteSpace=wrap;html=1;" vertex="1" parent="1">
                    <mxGeometry x="600" y="280" width="110" height="60" as="geometry"/>
                </mxCell>
                <mxCell id="55" style="edgeStyle=none;html=1;strokeColor=#050505;fontColor=#050505;endArrow=none;endFill=0;" edge="1" parent="1" source="30" target="17">
                    <mxGeometry relative="1" as="geometry"/>
                </mxCell>
                <mxCell id="56" style="edgeStyle=none;html=1;strokeColor=#050505;fontColor=#050505;endArrow=none;endFill=0;" edge="1" parent="1" source="30" target="18">
                    <mxGeometry relative="1" as="geometry"/>
                </mxCell>
                <mxCell id="57" style="edgeStyle=none;html=1;strokeColor=#050505;fontColor=#050505;endArrow=none;endFill=0;" edge="1" parent="1" source="30" target="19">
                    <mxGeometry relative="1" as="geometry"/>
                </mxCell>
                <mxCell id="30" value="&lt;font color=&quot;#050505&quot;&gt;Lider zespołu&lt;br&gt;&lt;br&gt;&lt;/font&gt;" style="shape=umlActor;verticalLabelPosition=bottom;verticalAlign=top;html=1;outlineConnect=0;fillColor=#f8cecc;strokeColor=#b85450;" vertex="1" parent="1">
                    <mxGeometry x="60" y="430" width="30" height="60" as="geometry"/>
                </mxCell>
                <mxCell id="60" style="edgeStyle=none;html=1;strokeColor=#050505;fontColor=#050505;endArrow=none;endFill=0;" edge="1" parent="1" source="31" target="20">
                    <mxGeometry relative="1" as="geometry"/>
                </mxCell>
                <mxCell id="61" style="edgeStyle=none;html=1;strokeColor=#050505;fontColor=#050505;endArrow=none;endFill=0;" edge="1" parent="1" source="31" target="21">
                    <mxGeometry relative="1" as="geometry"/>
                </mxCell>
                <mxCell id="62" style="edgeStyle=none;html=1;strokeColor=#050505;fontColor=#050505;endArrow=none;endFill=0;" edge="1" parent="1" source="31" target="22">
                    <mxGeometry relative="1" as="geometry"/>
                </mxCell>
                <mxCell id="63" style="edgeStyle=none;html=1;strokeColor=#050505;fontColor=#050505;endArrow=none;endFill=0;" edge="1" parent="1" source="31" target="38">
                    <mxGeometry relative="1" as="geometry"/>
                </mxCell>
                <mxCell id="31" value="&lt;font color=&quot;#050505&quot;&gt;Recenzent&lt;/font&gt;" style="shape=umlActor;verticalLabelPosition=bottom;verticalAlign=top;html=1;outlineConnect=0;fillColor=#f8cecc;strokeColor=#b85450;" vertex="1" parent="1">
                    <mxGeometry x="840" y="160" width="30" height="60" as="geometry"/>
                </mxCell>
                <mxCell id="58" style="edgeStyle=none;html=1;strokeColor=#050505;fontColor=#050505;endArrow=none;endFill=0;" edge="1" parent="1" source="34" target="42">
                    <mxGeometry relative="1" as="geometry"/>
                </mxCell>
                <mxCell id="59" style="edgeStyle=none;html=1;strokeColor=#050505;fontColor=#050505;endArrow=none;endFill=0;" edge="1" parent="1" source="34" target="43">
                    <mxGeometry relative="1" as="geometry"/>
                </mxCell>
                <mxCell id="34" value="&lt;font color=&quot;#050505&quot;&gt;Organizator&lt;br&gt;&lt;/font&gt;" style="shape=umlActor;verticalLabelPosition=bottom;verticalAlign=top;html=1;outlineConnect=0;fillColor=#f8cecc;strokeColor=#b85450;" vertex="1" parent="1">
                    <mxGeometry x="830" y="470" width="30" height="60" as="geometry"/>
                </mxCell>
                <mxCell id="38" value="Przeglądanie dokumentacji projektu" style="ellipse;whiteSpace=wrap;html=1;" vertex="1" parent="1">
                    <mxGeometry x="380" y="220" width="110" height="60" as="geometry"/>
                </mxCell>
                <mxCell id="39" value="Przeglądanie prezentacji" style="ellipse;whiteSpace=wrap;html=1;" vertex="1" parent="1">
                    <mxGeometry x="315" y="320" width="110" height="60" as="geometry"/>
                </mxCell>
                <mxCell id="40" value="Przeglądanie artykułów" style="ellipse;whiteSpace=wrap;html=1;" vertex="1" parent="1">
                    <mxGeometry x="465" y="330" width="110" height="60" as="geometry"/>
                </mxCell>
                <mxCell id="42" value="Zatwierdza date i miejsce prezentacji" style="ellipse;whiteSpace=wrap;html=1;" vertex="1" parent="1">
                    <mxGeometry x="590" y="430" width="110" height="60" as="geometry"/>
                </mxCell>
                <mxCell id="43" value="Promowanie projekt" style="ellipse;whiteSpace=wrap;html=1;" vertex="1" parent="1">
                    <mxGeometry x="590" y="510" width="110" height="60" as="geometry"/>
                </mxCell>
                <mxCell id="67" value="&amp;lt;&amp;lt;extend&amp;gt;&amp;gt;" style="html=1;verticalAlign=bottom;labelBackgroundColor=none;endArrow=open;endFill=0;dashed=1;strokeColor=#050505;fontColor=#050505;" edge="1" parent="1" source="40" target="38">
                    <mxGeometry width="160" relative="1" as="geometry">
                        <mxPoint x="510" y="410" as="sourcePoint"/>
                        <mxPoint x="670" y="410" as="targetPoint"/>
                    </mxGeometry>
                </mxCell>
                <mxCell id="69" value="&amp;lt;&amp;lt;extend&amp;gt;&amp;gt;" style="html=1;verticalAlign=bottom;labelBackgroundColor=none;endArrow=open;endFill=0;dashed=1;strokeColor=#050505;fontColor=#050505;exitX=1;exitY=0;exitDx=0;exitDy=0;" edge="1" parent="1" source="39" target="38">
                    <mxGeometry width="160" relative="1" as="geometry">
                        <mxPoint x="500" y="240" as="sourcePoint"/>
                        <mxPoint x="670" y="230" as="targetPoint"/>
                    </mxGeometry>
                </mxCell>
                <mxCell id="71" value="Zlecanie rozwieszenia posterów" style="ellipse;whiteSpace=wrap;html=1;" vertex="1" parent="1">
                    <mxGeometry x="410" y="520" width="110" height="60" as="geometry"/>
                </mxCell>
                <mxCell id="72" value="&amp;lt;&amp;lt;extend&amp;gt;&amp;gt;" style="html=1;verticalAlign=bottom;labelBackgroundColor=none;endArrow=open;endFill=0;dashed=1;strokeColor=#050505;fontColor=#050505;" edge="1" parent="1" source="71" target="43">
                    <mxGeometry width="160" relative="1" as="geometry">
                        <mxPoint x="370" y="370" as="sourcePoint"/>
                        <mxPoint x="530" y="370" as="targetPoint"/>
                    </mxGeometry>
                </mxCell>
                <mxCell id="74" value="System" style="text;html=1;strokeColor=none;fillColor=none;align=center;verticalAlign=middle;whiteSpace=wrap;rounded=0;fontColor=#050505;" vertex="1" parent="1">
                    <mxGeometry x="450" width="60" height="30" as="geometry"/>
                </mxCell>
                <mxCell id="78" value="" style="endArrow=block;html=1;strokeColor=#050505;fontColor=#050505;exitX=0.25;exitY=0.1;exitDx=0;exitDy=0;exitPerimeter=0;endFill=0;" edge="1" parent="1" source="30" target="2">
                    <mxGeometry width="50" height="50" relative="1" as="geometry">
                        <mxPoint x="190" y="360" as="sourcePoint"/>
                        <mxPoint x="240" y="310" as="targetPoint"/>
                    </mxGeometry>
                </mxCell>
            </root>
        </mxGraphModel>
    </diagram>
</mxfile>